<svg xmlns="http://www.w3.org/2000/svg" viewBox="0 0 512 512">
  <defs>
    <linearGradient id="bgGrad" x1="0%" y1="0%" x2="100%" y2="100%">
      <stop offset="0%" stop-color="#0a0f1e"/>
      <stop offset="100%" stop-color="#111827"/>
    </linearGradient>
    <linearGradient id="headerGrad" x1="0%" y1="0%" x2="100%" y2="0%">
      <stop offset="0%" stop-color="#06b6d4"/>
      <stop offset="100%" stop-color="#8b5cf6"/>
    </linearGradient>
    <linearGradient id="sigGrad" x1="0%" y1="100%" x2="0%" y2="0%">
      <stop offset="0%" stop-color="#06b6d4"/>
      <stop offset="100%" stop-color="#34d399"/>
    </linearGradient>
    <filter id="glow">
      <feGaussianBlur stdDeviation="5" result="blur"/>
      <feMerge><feMergeNode in="blur"/><feMergeNode in="SourceGraphic"/></feMerge>
    </filter>
  </defs>
  <rect width="512" height="512" rx="100" fill="url(#bgGrad)"/>
  <rect x="10" y="10" width="492" height="492" rx="92" fill="none" stroke="#06b6d4" stroke-width="2" opacity="0.08"/>
  <rect x="96" y="124" width="320" height="296" rx="24" fill="#111827" stroke="#1e293b" stroke-width="4"/>
  <rect x="96" y="124" width="320" height="42" rx="24" fill="url(#headerGrad)"/>
  <rect x="96" y="148" width="320" height="18" fill="url(#headerGrad)"/>
  <circle cx="130" cy="145" r="4" fill="#0a0f1e" opacity="0.5"/>
  <circle cx="148" cy="145" r="4" fill="#0a0f1e" opacity="0.5"/>
  <circle cx="166" cy="145" r="4" fill="#0a0f1e" opacity="0.5"/>
  <rect x="126" y="268" width="22" height="28" rx="5" fill="#06b6d4" opacity="0.3"/>
  <rect x="156" y="244" width="22" height="52" rx="5" fill="#06b6d4" opacity="0.45"/>
  <rect x="186" y="218" width="22" height="78" rx="5" fill="#06b6d4" opacity="0.6"/>
  <rect x="216" y="196" width="22" height="100" rx="5" fill="url(#sigGrad)" filter="url(#glow)"/>
  <rect x="246" y="218" width="22" height="78" rx="5" fill="#8b5cf6" opacity="0.5"/>
  <rect x="276" y="244" width="22" height="52" rx="5" fill="#8b5cf6" opacity="0.35"/>
  <line x1="316" y1="226" x2="390" y2="226" stroke="#1e293b" stroke-width="6" stroke-linecap="round"/>
  <line x1="316" y1="256" x2="374" y2="256" stroke="#1e293b" stroke-width="6" stroke-linecap="round"/>
  <line x1="316" y1="286" x2="382" y2="286" stroke="#1e293b" stroke-width="6" stroke-linecap="round"/>
  <line x1="316" y1="316" x2="358" y2="316" stroke="#1e293b" stroke-width="6" stroke-linecap="round"/>
  <circle cx="144" cy="372" r="20" fill="#10b981" filter="url(#glow)"/>
  <polyline points="134,374 142,382 158,362" fill="none" stroke="#0a0f1e" stroke-width="6" stroke-linecap="round" stroke-linejoin="round"/>
  <rect x="252" y="46" width="8" height="82" rx="4" fill="#06b6d4"/>
  <circle cx="256" cy="42" r="8" fill="#06b6d4" filter="url(#glow)"/>
  <path d="M 203 74 Q 188 100 203 126" fill="none" stroke="#06b6d4" stroke-width="5" stroke-linecap="round" opacity="0.5"/>
  <path d="M 185 56 Q 162 100 185 144" fill="none" stroke="#06b6d4" stroke-width="4" stroke-linecap="round" opacity="0.25"/>
  <path d="M 309 74 Q 324 100 309 126" fill="none" stroke="#8b5cf6" stroke-width="5" stroke-linecap="round" opacity="0.5"/>
  <path d="M 327 56 Q 350 100 327 144" fill="none" stroke="#8b5cf6" stroke-width="4" stroke-linecap="round" opacity="0.25"/>
</svg>
